<svg width="170" height="87" viewBox="0 0 170 87" fill="none" xmlns="http://www.w3.org/2000/svg">
    <path
        d="M25.3046 19.304V25.88H11.5766V32.984H21.8486V39.368H11.5766V53H3.36858V19.304H25.3046ZM41.8106 53.384C39.1866 53.384 36.8186 52.824 34.7066 51.704C32.6266 50.584 30.9786 48.984 29.7626 46.904C28.5786 44.824 27.9866 42.392 27.9866 39.608C27.9866 36.856 28.5946 34.44 29.8106 32.36C31.0266 30.248 32.6906 28.632 34.8026 27.512C36.9146 26.392 39.2826 25.832 41.9066 25.832C44.5306 25.832 46.8986 26.392 49.0106 27.512C51.1226 28.632 52.7866 30.248 54.0026 32.36C55.2186 34.44 55.8266 36.856 55.8266 39.608C55.8266 42.36 55.2026 44.792 53.9546 46.904C52.7386 48.984 51.0586 50.584 48.9146 51.704C46.8026 52.824 44.4346 53.384 41.8106 53.384ZM41.8106 46.28C43.3786 46.28 44.7066 45.704 45.7946 44.552C46.9146 43.4 47.4746 41.752 47.4746 39.608C47.4746 37.464 46.9306 35.816 45.8426 34.664C44.7866 33.512 43.4746 32.936 41.9066 32.936C40.3066 32.936 38.9786 33.512 37.9226 34.664C36.8666 35.784 36.3386 37.432 36.3386 39.608C36.3386 41.752 36.8506 43.4 37.8746 44.552C38.9306 45.704 40.2426 46.28 41.8106 46.28ZM72.3731 53.384C69.7491 53.384 67.3811 52.824 65.2691 51.704C63.1891 50.584 61.5411 48.984 60.3251 46.904C59.1411 44.824 58.5491 42.392 58.5491 39.608C58.5491 36.856 59.1571 34.44 60.3731 32.36C61.5891 30.248 63.2531 28.632 65.3651 27.512C67.4771 26.392 69.8451 25.832 72.4691 25.832C75.0931 25.832 77.4611 26.392 79.5731 27.512C81.6851 28.632 83.3491 30.248 84.5651 32.36C85.7811 34.44 86.3891 36.856 86.3891 39.608C86.3891 42.36 85.7651 44.792 84.5171 46.904C83.3011 48.984 81.6211 50.584 79.4771 51.704C77.3651 52.824 74.9971 53.384 72.3731 53.384ZM72.3731 46.28C73.9411 46.28 75.2691 45.704 76.3571 44.552C77.4771 43.4 78.0371 41.752 78.0371 39.608C78.0371 37.464 77.4931 35.816 76.4051 34.664C75.3491 33.512 74.0371 32.936 72.4691 32.936C70.8691 32.936 69.5411 33.512 68.4851 34.664C67.4291 35.784 66.9011 37.432 66.9011 39.608C66.9011 41.752 67.4131 43.4 68.4371 44.552C69.4931 45.704 70.8051 46.28 72.3731 46.28ZM89.1116 39.56C89.1116 36.808 89.6236 34.392 90.6476 32.312C91.7036 30.232 93.1276 28.632 94.9196 27.512C96.7116 26.392 98.7116 25.832 100.92 25.832C102.68 25.832 104.28 26.2 105.72 26.936C107.192 27.672 108.344 28.664 109.176 29.912V17.48H117.384V53H109.176V49.16C108.408 50.44 107.304 51.464 105.864 52.232C104.456 53 102.808 53.384 100.92 53.384C98.7116 53.384 96.7116 52.824 94.9196 51.704C93.1276 50.552 91.7036 48.936 90.6476 46.856C89.6236 44.744 89.1116 42.312 89.1116 39.56ZM109.176 39.608C109.176 37.56 108.6 35.944 107.448 34.76C106.328 33.576 104.952 32.984 103.32 32.984C101.688 32.984 100.296 33.576 99.1436 34.76C98.0236 35.912 97.4636 37.512 97.4636 39.56C97.4636 41.608 98.0236 43.24 99.1436 44.456C100.296 45.64 101.688 46.232 103.32 46.232C104.952 46.232 106.328 45.64 107.448 44.456C108.6 43.272 109.176 41.656 109.176 39.608ZM150.682 26.216L133.882 65.72H125.05L131.194 52.088L120.298 26.216H129.466L135.658 42.968L141.802 26.216H150.682Z"
        fill="#333333" />
    <path
        d="M157.49 53.384C156.05 53.384 154.866 52.968 153.938 52.136C153.042 51.272 152.594 50.216 152.594 48.968C152.594 47.688 153.042 46.616 153.938 45.752C154.866 44.888 156.05 44.456 157.49 44.456C158.898 44.456 160.05 44.888 160.946 45.752C161.874 46.616 162.338 47.688 162.338 48.968C162.338 50.216 161.874 51.272 160.946 52.136C160.05 52.968 158.898 53.384 157.49 53.384Z"
        fill="#00B074" />
</svg>
    