<svg width="25" height="24" viewBox="0 0 25 24" fill="none" xmlns="http://www.w3.org/2000/svg">
    <path
        d="M24.1093 22.7761L18.2756 16.9437C19.8405 15.145 20.788 12.7982 20.788 10.2333C20.788 4.58714 16.1945 0 10.5524 0C4.90505 0 0.316895 4.59246 0.316895 10.2333C0.316895 15.8741 4.91037 20.4665 10.5524 20.4665C13.118 20.4665 15.4653 19.5193 17.2643 17.9548L23.098 23.7871C23.2364 23.9255 23.4227 24 23.6037 24C23.7846 24 23.9709 23.9308 24.1093 23.7871C24.3861 23.5104 24.3861 23.0528 24.1093 22.7761ZM1.7487 10.2333C1.7487 5.38004 5.69813 1.43681 10.5471 1.43681C15.4014 1.43681 19.3455 5.38537 19.3455 10.2333C19.3455 15.0812 15.4014 19.035 10.5471 19.035C5.69813 19.035 1.7487 15.0865 1.7487 10.2333Z"
        fill="#A4A4A4" />
</svg>
    